<svg width="20" height="20" viewBox="0 0 20 20" fill="none" xmlns="http://www.w3.org/2000/svg">
<path d="M7.37959 19.6447C8.23337 19.8783 9.11443 19.9974 9.99959 19.9987L10.1406 19.9977C10.6459 19.9914 11.1415 19.8575 11.5812 19.6084C12.0209 19.3592 12.3905 19.003 12.6556 18.5727C13.1976 17.6967 13.2556 16.6197 12.8086 15.6927L12.6106 15.2777C12.1576 14.3357 12.5136 13.4817 12.9986 12.9967C13.4836 12.5117 14.3396 12.1557 15.2786 12.6087H15.2796L15.6926 12.8077C16.1467 13.0273 16.649 13.1285 17.1528 13.1017C17.6565 13.075 18.1453 12.9212 18.5736 12.6547C19.0041 12.3898 19.3606 12.0203 19.6099 11.5806C19.8592 11.1408 19.9933 10.6452 19.9996 10.1397C20.0121 9.20773 19.8933 8.2786 19.6466 7.37974C18.6086 3.55274 15.2936 0.625736 11.4006 0.0947361C8.25159 -0.332264 5.15959 0.696736 2.92959 2.92774C0.69959 5.15874 -0.33441 8.24574 0.0955898 11.3987C0.62559 15.2927 3.55359 18.6067 7.37959 19.6447ZM13.4996 3.99874C13.8974 3.99874 14.2789 4.15677 14.5602 4.43808C14.8416 4.71938 14.9996 5.10091 14.9996 5.49874C14.9996 5.89656 14.8416 6.27809 14.5602 6.5594C14.2789 6.8407 13.8974 6.99874 13.4996 6.99874C13.1018 6.99874 12.7202 6.8407 12.4389 6.5594C12.1576 6.27809 11.9996 5.89656 11.9996 5.49874C11.9996 5.10091 12.1576 4.71938 12.4389 4.43808C12.7202 4.15677 13.1018 3.99874 13.4996 3.99874ZM8.49959 2.99874C8.89741 2.99874 9.27895 3.15677 9.56025 3.43808C9.84155 3.71938 9.99959 4.10091 9.99959 4.49874C9.99959 4.89656 9.84155 5.27809 9.56025 5.5594C9.27895 5.8407 8.89741 5.99874 8.49959 5.99874C8.10177 5.99874 7.72023 5.8407 7.43893 5.5594C7.15763 5.27809 6.99959 4.89656 6.99959 4.49874C6.99959 4.10091 7.15763 3.71938 7.43893 3.43808C7.72023 3.15677 8.10177 2.99874 8.49959 2.99874ZM6.99959 13.5047C6.99959 13.9026 6.84155 14.2841 6.56025 14.5654C6.27895 14.8467 5.89741 15.0047 5.49959 15.0047C5.10177 15.0047 4.72023 14.8467 4.43893 14.5654C4.15763 14.2841 3.99959 13.9026 3.99959 13.5047C3.99959 13.1069 4.15763 12.7254 4.43893 12.4441C4.72023 12.1628 5.10177 12.0047 5.49959 12.0047C5.89741 12.0047 6.27895 12.1628 6.56025 12.4441C6.84155 12.7254 6.99959 13.1069 6.99959 13.5047ZM4.49959 7.00474C4.89755 7.00487 5.27915 7.16308 5.56046 7.44458C5.84176 7.72607 5.99972 8.10778 5.99959 8.50574C5.99946 8.90369 5.84124 9.2853 5.55975 9.5666C5.27826 9.84791 4.89655 10.0059 4.49859 10.0057C4.10063 10.0056 3.71903 9.84739 3.43772 9.5659C3.15642 9.2844 2.99846 8.90269 2.99859 8.50474C2.99872 8.10678 3.15694 7.72517 3.43843 7.44387C3.71992 7.16256 4.10163 7.0046 4.49959 7.00474Z" fill="white"/>
</svg>
