<svg width="28" height="28" viewBox="0 0 28 28" fill="none" xmlns="http://www.w3.org/2000/svg">
<g clip-path="url(#clip0_68_765)">
<path d="M6.87109 24.7031H21.6016C23.5469 24.7031 24.4727 24.1172 24.4727 22.8281C24.4727 19.7578 20.5938 15.3164 14.2422 15.3164C7.87891 15.3164 4 19.7578 4 22.8281C4 24.1172 4.92578 24.7031 6.87109 24.7031ZM6.32031 22.9336C6.01562 22.9336 5.88672 22.8516 5.88672 22.6055C5.88672 20.6719 8.86328 17.0859 14.2422 17.0859C19.6094 17.0859 22.5859 20.6719 22.5859 22.6055C22.5859 22.8516 22.4688 22.9336 22.1641 22.9336H6.32031ZM14.2422 13.8516C17.0312 13.8516 19.3047 11.3789 19.3047 8.35547C19.3047 5.35547 17.043 3 14.2422 3C11.4648 3 9.17969 5.40234 9.17969 8.37891C9.17969 11.3906 11.4531 13.8516 14.2422 13.8516ZM14.2422 12.082C12.5312 12.082 11.0664 10.4531 11.0664 8.37891C11.0664 6.33984 12.5078 4.76953 14.2422 4.76953C15.9883 4.76953 17.418 6.30469 17.418 8.35547C17.418 10.4297 15.9648 12.082 14.2422 12.082Z" fill="black" fill-opacity="0.85"/>
</g>
<defs>
<clipPath id="clip0_68_765">
<rect width="20.4727" height="21.7148" fill="white" transform="translate(4 3)"/>
</clipPath>
</defs>
</svg>
