<svg width="24" height="24" viewBox="0 0 24 24" fill="none" xmlns="http://www.w3.org/2000/svg">
<path d="M12 0C18.6274 0 24 5.37258 24 12C24 18.6274 18.6274 24 12 24C5.37258 24 0 18.6274 0 12C0 5.37258 5.37258 0 12 0ZM12 2C11.0795 2 10.333 2.74652 10.333 3.66699V10.333H3.66699C2.74652 10.333 2 11.0795 2 12C2 12.9205 2.74652 13.667 3.66699 13.667H10.333V20.333C10.333 21.2535 11.0795 22 12 22C12.9205 22 13.667 21.2535 13.667 20.333V13.667H20.333C21.2535 13.667 22 12.9205 22 12C22 11.0795 21.2535 10.333 20.333 10.333H13.667V3.66699C13.667 2.74652 12.9205 2 12 2Z" fill="black"/>
</svg>
