<svg width="28" height="22" viewBox="0 0 28 22" fill="none" xmlns="http://www.w3.org/2000/svg">
<g clip-path="url(#clip0_221_2161)">
<path d="M3.67969 21.5742H23.9531C26.4141 21.5742 27.6328 20.3672 27.6328 17.9531V3.63281C27.6328 1.21875 26.4141 0 23.9531 0H3.67969C1.23047 0 0 1.21875 0 3.63281V17.9531C0 20.3672 1.23047 21.5742 3.67969 21.5742ZM3.70312 19.6875C2.53125 19.6875 1.88672 19.0664 1.88672 17.8477V3.73828C1.88672 2.51953 2.53125 1.88672 3.70312 1.88672H23.9297C25.0898 1.88672 25.7461 2.51953 25.7461 3.73828V17.8477C25.7461 19.0664 25.0898 19.6875 23.9297 19.6875H3.70312Z" fill="black" fill-opacity="0.85"/>
<path d="M5.85938 6.67969H7.27734C7.76953 6.67969 8.17969 6.26953 8.17969 5.77734C8.17969 5.28516 7.75781 4.875 7.27734 4.875H5.85938C5.35547 4.875 4.96875 5.28516 4.96875 5.77734C4.96875 6.26953 5.36719 6.67969 5.85938 6.67969ZM5.85938 10.582H7.27734C7.75781 10.582 8.17969 10.1836 8.17969 9.69141C8.17969 9.19922 7.76953 8.80078 7.27734 8.80078H5.85938C5.35547 8.80078 4.96875 9.19922 4.96875 9.69141C4.96875 10.1836 5.35547 10.582 5.85938 10.582ZM10.5586 6.51562H21.9258C22.3359 6.51562 22.6523 6.1875 22.6523 5.77734C22.6523 5.36719 22.3359 5.05078 21.9258 5.05078H10.5586C10.1484 5.05078 9.83203 5.36719 9.83203 5.77734C9.83203 6.1875 10.1484 6.51562 10.5586 6.51562ZM10.5586 10.4297H21.9258C22.3359 10.4297 22.6523 10.1133 22.6523 9.69141C22.6523 9.28125 22.3359 8.95312 21.9258 8.95312H10.5586C10.1602 8.95312 9.83203 9.26953 9.83203 9.69141C9.83203 10.1016 10.1484 10.4297 10.5586 10.4297Z" fill="black" fill-opacity="0.85"/>
</g>
<defs>
<clipPath id="clip0_221_2161">
<rect width="27.6328" height="21.5742" fill="white"/>
</clipPath>
</defs>
</svg>
