<svg width="17" height="22" viewBox="0 0 17 22" fill="none" xmlns="http://www.w3.org/2000/svg">
<path d="M16 0C16.5523 0 17 0.447715 17 1V21C17 21.3767 16.7881 21.7212 16.4521 21.8916C16.116 22.0619 15.7121 22.0295 15.4082 21.8066L8.5 16.7402L1.5918 21.8066C1.28791 22.0295 0.883993 22.0619 0.547852 21.8916C0.211867 21.7212 0 21.3767 0 21V1C0 0.447715 0.447715 0 1 0H16Z" fill="#FFD000"/>
<path d="M1 7V1H16V7M1 7V21L8.5 15.5L16 21V7M1 7H16" stroke="#333333" stroke-width="2" stroke-linejoin="round"/>
</svg>
