<svg width="24" height="24" viewBox="0 0 24 24" fill="none" xmlns="http://www.w3.org/2000/svg">
<path d="M2.59994 13.0829L6.05194 14.5939L15.9999 9.1669L9.99994 16.1669L18.5999 20.0829C18.747 20.1473 18.9074 20.1754 19.0676 20.1647C19.2279 20.154 19.3831 20.1049 19.5204 20.0215C19.6576 19.9382 19.7727 19.823 19.856 19.6857C19.9393 19.5484 19.9883 19.3931 19.9989 19.2329L20.9989 4.2329C21.0101 4.05929 20.9758 3.88576 20.8995 3.72941C20.8233 3.57305 20.7076 3.43924 20.5639 3.34116C20.4202 3.24308 20.2534 3.1841 20.08 3.17003C19.9066 3.15596 19.7326 3.18728 19.5749 3.2609L2.57494 11.2609C2.40152 11.3432 2.25539 11.4735 2.15392 11.6364C2.05245 11.7994 1.9999 11.988 2.00254 12.1799C2.00517 12.3719 2.06287 12.559 2.16877 12.7191C2.27468 12.8791 2.42433 13.0054 2.59994 13.0829ZM7.99994 22.1669L12.7759 19.8509L7.99994 17.6229V22.1669Z" fill="black"/>
</svg>
