<svg width="32" height="32" viewBox="0 0 32 32" fill="none" xmlns="http://www.w3.org/2000/svg">
<g filter="url(#filter0_d_198_1089)">
<path d="M16 0C22.6274 0 28 5.37258 28 12C28 12.1284 27.9972 12.2563 27.9932 12.3838C27.9918 12.4252 27.99 12.4665 27.9883 12.5078C27.9589 13.2143 27.8662 13.9044 27.7197 14.5742C27.7083 14.6264 27.6958 14.6784 27.6836 14.7305C27.5593 15.2644 27.4 15.7842 27.207 16.2881C27.1947 16.3204 27.1816 16.3525 27.1689 16.3848C27.0283 16.7428 26.8714 17.0923 26.6982 17.4326C26.6741 17.4802 26.6498 17.5279 26.625 17.5752C26.5746 17.6711 26.5227 17.766 26.4697 17.8604C26.4414 17.911 26.4129 17.9615 26.3838 18.0117C26.3302 18.1041 26.2767 18.1963 26.2207 18.2871C26.1936 18.3311 26.1653 18.3743 26.1377 18.418C26.0421 18.5687 25.9419 18.7162 25.8398 18.8623C25.7881 18.9365 25.7369 19.0111 25.6836 19.084C25.6349 19.1504 25.5851 19.2159 25.5352 19.2812C25.4697 19.367 25.4026 19.4513 25.335 19.5352C25.2961 19.5833 25.2583 19.6322 25.2188 19.6797C24.997 19.9458 24.7646 20.202 24.5215 20.4473C24.4881 20.4809 24.4537 20.5136 24.4199 20.5469C24.3269 20.6385 24.2327 20.7289 24.1367 20.8174C24.0969 20.8541 24.0569 20.8906 24.0166 20.9268C23.9111 21.0215 23.804 21.1142 23.6953 21.2051C23.6698 21.2264 23.6448 21.2484 23.6191 21.2695C23.4931 21.3732 23.3646 21.4738 23.2344 21.5723C23.1761 21.6164 23.1167 21.6591 23.0576 21.7021C22.9743 21.7627 22.8905 21.8224 22.8057 21.8809C22.742 21.9248 22.6778 21.968 22.6133 22.0107C22.5506 22.0521 22.4873 22.0926 22.4238 22.1328C22.1171 22.3277 21.8013 22.5088 21.4766 22.6758C21.4367 22.6962 21.3966 22.7163 21.3564 22.7363C21.2536 22.7877 21.1504 22.8382 21.0459 22.8867C21.0037 22.9063 20.9614 22.9253 20.9189 22.9443C20.4118 23.1726 19.8864 23.3665 19.3447 23.5234C19.3372 23.5256 19.3298 23.5281 19.3223 23.5303C18.5093 23.7641 17.6619 23.916 16.7881 23.9727C16.7581 23.9746 16.7282 23.9768 16.6982 23.9785C16.4672 23.9918 16.2344 24 16 24C15.9664 24 15.9329 23.9983 15.8994 23.998C15.8698 23.9978 15.8402 23.9975 15.8105 23.9971C14.9572 23.9839 14.1264 23.8788 13.3252 23.6963C13.2763 23.6851 13.2274 23.6739 13.1787 23.6621C13.0556 23.6324 12.9331 23.6018 12.8115 23.5684C12.7955 23.564 12.7796 23.5592 12.7637 23.5547C12.3637 23.4429 11.9728 23.3102 11.5908 23.1592C11.5639 23.1485 11.5366 23.1388 11.5098 23.1279C11.3942 23.0813 11.2798 23.0326 11.166 22.9824C11.1336 22.9682 11.1016 22.953 11.0693 22.9385C10.7133 22.7777 10.3668 22.6007 10.0303 22.4072C9.99511 22.3871 9.95977 22.3672 9.9248 22.3467C9.83219 22.2922 9.74042 22.2366 9.64941 22.1797C9.57824 22.1353 9.50775 22.0898 9.4375 22.0439C9.37159 22.0008 9.30523 21.9585 9.24023 21.9141C9.10777 21.8237 8.97656 21.7314 8.84766 21.6357C8.80145 21.6014 8.75663 21.5653 8.71094 21.5303C8.61725 21.4586 8.52426 21.386 8.43262 21.3115C8.38188 21.2702 8.33227 21.2276 8.28223 21.1855C8.19145 21.1093 8.10132 21.0322 8.0127 20.9531C7.97159 20.9164 7.93024 20.88 7.88965 20.8428C7.76256 20.7262 7.63696 20.6077 7.51465 20.4854C7.39201 20.3627 7.27311 20.2368 7.15625 20.1094C7.11697 20.0666 7.0787 20.0229 7.04004 19.9795C6.96305 19.893 6.88781 19.8053 6.81348 19.7168C6.77139 19.6667 6.72878 19.6172 6.6875 19.5664C6.61303 19.4748 6.54039 19.3818 6.46875 19.2881C6.43206 19.2402 6.39438 19.193 6.3584 19.1445C6.2645 19.0178 6.17369 18.889 6.08496 18.7588C6.04057 18.6938 5.99822 18.6274 5.95508 18.5615C5.90919 18.4913 5.86373 18.4208 5.81934 18.3496C5.75782 18.2512 5.69739 18.1521 5.63867 18.0518C5.62264 18.0243 5.6076 17.9963 5.5918 17.9688C5.3984 17.6322 5.22123 17.2857 5.06055 16.9297C5.046 16.8974 5.03086 16.8654 5.0166 16.833C4.96648 16.7193 4.91776 16.6048 4.87109 16.4893C4.86026 16.4624 4.85048 16.4351 4.83984 16.4082C4.63699 15.8951 4.46822 15.3653 4.33691 14.8203C4.32513 14.7716 4.31391 14.7227 4.30273 14.6738C4.12036 13.8726 4.01509 13.0418 4.00195 12.1885C4.00149 12.1589 4.00122 12.1292 4.00098 12.0996C4.00071 12.0664 4 12.0332 4 12C4 11.7653 4.00721 11.5322 4.02051 11.3008C4.02226 11.2708 4.02439 11.2409 4.02637 11.2109C4.12143 9.74647 4.48086 8.35468 5.05469 7.08008C5.07375 7.03768 5.09277 6.99527 5.1123 6.95312C5.16081 6.84867 5.2113 6.74538 5.2627 6.64258C5.28272 6.60244 5.30278 6.56234 5.32324 6.52246C5.49017 6.19775 5.67138 5.88186 5.86621 5.5752C5.90645 5.51172 5.94688 5.44841 5.98828 5.38574C6.03101 5.32119 6.07422 5.25703 6.11816 5.19336C6.17659 5.10853 6.23631 5.02466 6.29688 4.94141C6.33995 4.88229 6.38263 4.82294 6.42676 4.76465C6.52518 4.63443 6.62587 4.50595 6.72949 4.37988C6.75105 4.35368 6.77412 4.32875 6.7959 4.30273C6.88637 4.19455 6.97802 4.08737 7.07227 3.98242C7.10847 3.94214 7.14491 3.90209 7.18164 3.8623C7.27016 3.76638 7.36049 3.67214 7.45215 3.5791C7.48543 3.54532 7.51808 3.51092 7.55176 3.47754C7.79698 3.23445 8.05322 3.00197 8.31934 2.78027C8.36681 2.74068 8.41578 2.70293 8.46387 2.66406C8.54769 2.5964 8.63204 2.52934 8.71777 2.46387C8.78313 2.41388 8.84863 2.36409 8.91504 2.31543C8.98796 2.26209 9.0625 2.21094 9.13672 2.15918C9.19992 2.11502 9.26208 2.06934 9.32617 2.02637C9.32835 2.02491 9.33083 2.02392 9.33301 2.02246C9.45806 1.93891 9.58415 1.85692 9.71191 1.77832C9.80268 1.72236 9.89495 1.66882 9.9873 1.61523C10.0375 1.58615 10.0881 1.55763 10.1387 1.5293C10.233 1.47637 10.3279 1.42445 10.4238 1.37402C10.4712 1.34919 10.5188 1.32497 10.5664 1.30078C10.9067 1.12763 11.2562 0.970764 11.6143 0.830078C11.6465 0.817419 11.6786 0.80437 11.7109 0.791992C11.8359 0.744152 11.962 0.699017 12.0889 0.655273C12.0958 0.652891 12.1025 0.649831 12.1094 0.647461C12.4876 0.517858 12.8743 0.40723 13.2686 0.31543C13.3206 0.303262 13.3726 0.29077 13.4248 0.279297C14.0946 0.132817 14.7848 0.0402095 15.4912 0.0107422C15.5325 0.00898901 15.5739 0.007186 15.6152 0.00585938C15.743 0.00183513 15.8713 0 16 0ZM16 12H25C25 7.02944 20.9706 3 16 3V12Z" fill="black"/>
</g>
<defs>
<filter id="filter0_d_198_1089" x="0" y="0" width="32" height="32" filterUnits="userSpaceOnUse" color-interpolation-filters="sRGB">
<feFlood flood-opacity="0" result="BackgroundImageFix"/>
<feColorMatrix in="SourceAlpha" type="matrix" values="0 0 0 0 0 0 0 0 0 0 0 0 0 0 0 0 0 0 127 0" result="hardAlpha"/>
<feOffset dy="4"/>
<feGaussianBlur stdDeviation="2"/>
<feComposite in2="hardAlpha" operator="out"/>
<feColorMatrix type="matrix" values="0 0 0 0 0 0 0 0 0 0 0 0 0 0 0 0 0 0 0.25 0"/>
<feBlend mode="normal" in2="BackgroundImageFix" result="effect1_dropShadow_198_1089"/>
<feBlend mode="normal" in="SourceGraphic" in2="effect1_dropShadow_198_1089" result="shape"/>
</filter>
</defs>
</svg>
