<svg width="28" height="30" viewBox="0 0 28 30" fill="none" xmlns="http://www.w3.org/2000/svg">
<g clip-path="url(#clip0_68_764)">
<path d="M14.1445 27.668C20.6484 27.668 25.2539 25.5586 25.2539 22.5352C25.2539 19.5234 20.6484 17.4141 14.1445 17.4141C7.62891 17.4141 3 19.5234 3 22.5352C3 25.5586 7.62891 27.668 14.1445 27.668ZM14.1328 25.8164C9.21094 25.8164 5.39062 24.3867 5.39062 22.5352C5.39062 20.707 9.21094 19.2773 14.1328 19.2773C19.0312 19.2773 22.875 20.7188 22.875 22.5352C22.875 24.3633 19.0312 25.8164 14.1328 25.8164Z" fill="black" fill-opacity="0.85"/>
<path d="M14.1328 24.0938C16.1133 24.0938 17.1445 22.1953 17.1445 18.5039V11.9414C19.125 10.8633 20.4609 8.76562 20.4609 6.35156C20.4609 2.87109 17.6367 0 14.1328 0C10.6172 0 7.79297 2.87109 7.79297 6.35156C7.79297 8.76562 9.11719 10.8516 11.0977 11.9414V18.5039C11.0977 22.1953 12.1523 24.0938 14.1328 24.0938Z" fill="white"/>
<path d="M9.72656 6.35156C9.72656 8.41406 11.1328 10.1367 13.043 10.6172V18.0352C13.043 21.4922 13.6523 23.3789 14.1328 23.3789C14.6016 23.3789 15.2109 21.5039 15.2109 18.0352V10.6172C17.1211 10.1484 18.5273 8.41406 18.5273 6.35156C18.5273 3.92578 16.5703 1.93359 14.1328 1.93359C11.6836 1.93359 9.72656 3.92578 9.72656 6.35156ZM12.8672 6.59766C12.0703 6.59766 11.3672 5.89453 11.3672 5.07422C11.3672 4.26562 12.0703 3.57422 12.8672 3.57422C13.6992 3.57422 14.3789 4.26562 14.3789 5.07422C14.3789 5.89453 13.6992 6.59766 12.8672 6.59766Z" fill="black" fill-opacity="0.85"/>
<path d="M12.8672 6.59766C12.0703 6.59766 11.3672 5.89453 11.3672 5.07422C11.3672 4.26562 12.0703 3.57422 12.8672 3.57422C13.6992 3.57422 14.3789 4.26562 14.3789 5.07422C14.3789 5.89453 13.6992 6.59766 12.8672 6.59766Z" fill="white"/>
</g>
<defs>
<clipPath id="clip0_68_764">
<rect width="22.2539" height="29.6133" fill="white" transform="translate(3)"/>
</clipPath>
</defs>
</svg>
